/* XPM */
static char *result[] = {
/* columns rows colors chars-per-pixel */
"50 50 14 1 ",
"  c #2A2A34",
". c #644D37",
"X c #6C563B",
"o c #3A5969",
"O c #786144",
"+ c #6EA87B",
"@ c #683D8A",
"# c #9E54A3",
"$ c #CC7DB4",
"% c #578680",
"& c #DFA1BB",
"* c #93CF95",
"= c #EDCED4",
"- c white",
/* pixels */
"OOO....OOOOOOOOOOOO........OOOOOOOOOOOOOOOOOOOOOOO",
"OOO....OOOOOOOOOOOO........OOOOOOOOOOOOOOOOOOOOOOO",
"OOO....OOOOOOOOOOOO........OOOOOOOOOOOOOOOOOOOOOOO",
"OOOXXXX....OOOOOOOOXXXXXXXXOOOOOOOOOOOOOOOO....OOO",
"OOOXXXX....OOOOOOOOXXXXXXXXOOOOOOOOOOOOOOOO....OOO",
"OOOXXXX....OOOOOOOOXXXXXXXXOOOOOOOOOOOOOOOO....OOO",
"OOOXXXX....OOOOOOOOXXXXXXXXOOOOOOOOOOOOOOOO....OOO",
"OOOOOOOXXXX....OOOOOOOOOOOOOOOOOOOOOOOOOOOOOOOOOOO",
"OOOOOOOXXXX....OOOOOOOOOOOOOOOOOOOOOOOOOOOOOOOOOOO",
"OOOOOOOXXXX....OOOOOOOOOOOOOOOOOOOOOOOOOOOOOOOOOOO",
"OOOOOOOXXXX....OOOOOOOOO      OOOOOOOOOOOOOOOOOOOO",
"OOOOOOOOOOOOOOOOOOOOOO  ===&&& OOOOOOOOOOOOOOOOOOO",
"OOOOOOOOOOOOOOOOOOOO  ==&&&&&& OOOOOOOOOOOOOOOOOOO",
"OOOOOOOOOOOOOOOOOOO ==&&&&&&&&$ OOOOOOOOOOOOOOOOOO",
"OOOOOOOOOOOOOOOOOO =&&&&    $$$ OOOOOOOOOOOOOOOOOO",
"OOOOOOOOOOO...    &&&&& ****  $$ OOOOOOOOOOOOOOOOO",
"OOOOOOOOOOO.. ++ &&&&$ *++++++ $ OOOOOOOOOOOOOOOOO",
"OOOOOOOOOOO. %% &&&&$ *oooo+++%  OOOOOOOOOOOOOOOOO",
"OOOOOOOOOOO oo $&&&$ +o++++o+++% OOOOOOOOOOOOOOOOO",
"OOOOOOOOOOO - $&&&$ +o+++++%o+++% OOOOOOOOOOOOOOOO",
"OOOOOOOOOOO - $&&$ *o%%%%%%%%o++% OOOOOOOOOOOOOOOO",
"OOOOOOOOOOOX $&&&$ *oooooooooo++% OOOOOOOOOOOOOOOO",
"OOOOOOOOOOOX $&&$ *+o--------o++% OOOOOOOOOOOOOOOO",
"OOOOOOOOOOO $$$$$ *+%o------o%++% OOOOOOOOOOOOOOOO",
"OOOOOOOOOOO ###### ++%o----o%+++% OOO    OOOOOOOOO",
"OOOOOOOOOO ===&=&&& ++%oooo%+++% OOO ==&& OOOOOOOO",
"OOOOOOOOOO @@@@@@@$& ++%%%%++++% OO =$  $= OOOOOOO",
"OOOOOOOOOO $$$$$$$@$ +++++++++% % O $ OO & OOOOOOO",
"OOOOOOOOOO        $$ ++++++%%%o%+ O $$ O & OOOOOOO",
"OOOOOOOOOOO  %%%%%  %++%%%%ooo%++ OO  O $& OOOOOOO",
"OOOOOOOOOOOOO %%%%%%%%%oooo%%%+++ OOO  =&& OOOOOOO",
"OOOXXXXOOOOOOO         %%%%+o+++%    ==&& O....OOO",
"OOOXXXXOOOOOOOO %% %%%%*+++o+++%  $&&&&&$ O....OOO",
"OOOXXXXOOOOOOOO %% +**+++++ %%% % $&&&$$ OO....OOO",
"OOOXXXXOOOOOOOOO    +++++++%   % $$&$$  OOO....OOO",
"OOOOOOOOOOOOOOOOOOO ++++++++%%%% $$$  OOOOOOOOOOOO",
"OOOOOOOOOOOOOOOOOOOO +%%%%%%%+%     OOOOOOOOOOOOOO",
"OOOOOOOOOOOOOOOOOOOO +       +% OOOOOOOOOOOOOOOOOO",
"OOOOOOOOOOOOOOOOOOOO %% OOO. %% OOOOOOOOOOOOOOOOOO",
"OOOOOOOOOOOOOOOOOOOOO  OOOOXX  ....OOOOOOOOOOOOOOO",
"OOOOOOOOOOOOOOOOOOOOOOOOOOOXXXX....OOOOOOOOOOOOOOO",
"OOOOOOOOOOOOOOOOOOOOOOOOOOOXXXX....OOOOOOOOOOOOOOO",
"OOOOOOOOOOOOOOOOOOOOOOOOOOOXXXX....OOOOOOOOOOOOOOO",
"OOOOOOOOOOOOOOOOOOOOOOOOOOOOOOOXXXX....OOOOOOOOOOO",
"OOOOOOOOOOOOOOOOOOOOOOOOOOOOOOOXXXX....OOOOOOOOOOO",
"OOOOOOOOOOOOOOOOOOOOOOOOOOOOOOOXXXX....OOOOOOOOOOO",
"OOOOOOOOOOOOOOOOOOOOOOOOOOOOOOOXXXX....OOOOOOOOOOO",
"OOOOOOOOOOO....OOOOOOOOOOOOOOOOOOOOOOOOOOOOOOOOOOO",
"OOOOOOOOOOO....OOOOOOOOOOOOOOOOOOOOOOOOOOOOOOOOOOO",
"OOOOOOOOOOO....OOOOOOOOOOOOOOOOOOOOOOOOOOOOOOOOOOO"
};