/* XPM */
static char *result[] = {
/* columns rows colors chars-per-pixel */
"52 52 8 1 ",
"  c #3F3A3C",
". c #41322C",
"X c #5E3F35",
"o c #464041",
"O c #4E4A4B",
"+ c #5C5850",
"@ c #744D40",
"# c #966345",
/* pixels */
"#########........@@@@@@@@########....@@@@@@@@@@@@@@@",
"#########........@@@@@@@@########....@@@@@@@@@@@@@@@",
"#########........@@@@@@@@########....@@@@@@@@@@@@@@@",
"#########........@@@@@@@@########....@@@@@@@@@@@@@@@",
".............@@@@@@@@................XXXX@@@@@@@@@@@",
".............@@@@@@@@................XXXX@@@@@@@@@@@",
".............@@@@@@@@................XXXX@@@@@@@@@@@",
".............@@@@@@@@................XXXX@@@@@@@@@@@",
"#########................................####.......",
"#########................................####.......",
"#########................................####.......",
"#########................................####.......",
"X@@@@........................................XXXXXXX",
"X@@@@........................................XXXXXXX",
"X@@@@........................................XXXXXXX",
"X@@@@........................................XXXXXXX",
".............................................XXXXXXX",
".............................................XXXXXXX",
".............................................XXXXXXX",
".............................................XXXXXXX",
"#########....................................XXXX###",
"#########....................................XXXX###",
"#########....................................XXXX###",
"#########....................................XXXX###",
"@@@@@XXXX....................................XXXX###",
"@@@@@XXXX....................................XXXX###",
"@@@@@XXXX....................................XXXX###",
"@@@@@XXXX....................................XXXX###",
"....................................................",
"....................................................",
"....................................................",
"....................................................",
"#@@@@@@@@####XXXX....................########XXXXXXX",
"#@@@@@@@@####XXXX....................########XXXXXXX",
"#@@@@@@@@####XXXX....................########XXXXXXX",
"#@@@@@@@@####XXXX....................########XXXXXXX",
"....................................................",
"....................................................",
"....................................................",
"....................................................",
"O++++    ++++OOOO++++OOOO++++    ++++OOOOoooo+++++++",
"O++++    ++++OOOO++++OOOO++++    ++++OOOOoooo+++++++",
"O++++    ++++OOOO++++OOOO++++    ++++OOOOoooo+++++++",
"O++++    ++++OOOO++++OOOO++++    ++++OOOOoooo+++++++",
"OOOOO    OOOOoooooooooooooooo    ooooOOOOooooooooooo",
"OOOOO    OOOOoooooooooooooooo    ooooOOOOooooooooooo",
"OOOOO    OOOOoooooooooooooooo    ooooOOOOooooooooooo",
"OOOOO    OOOOoooooooooooooooo    ooooOOOOooooooooooo",
"oOOOO    ooooOOOOooooooooOOOO    OOOOooooooooOOOOooo",
"oOOOO    ooooOOOOooooooooOOOO    OOOOooooooooOOOOooo",
"oOOOO    ooooOOOOooooooooOOOO    OOOOooooooooOOOOooo",
"oOOOO    ooooOOOOooooooooOOOO    OOOOooooooooOOOOooo"
};