/* XPM */
static char *result[] = {
/* columns rows colors chars-per-pixel */
"50 50 3 1 ",
"  c #684B30",
". c #715434",
"X c #7D603D",
/* pixels */
"XXX    XXXXXXXXXXXX        XXXXXXXXXXXXXXXXXXXXXXX",
"XXX    XXXXXXXXXXXX        XXXXXXXXXXXXXXXXXXXXXXX",
"XXX    XXXXXXXXXXXX        XXXXXXXXXXXXXXXXXXXXXXX",
"XXX....    XXXXXXXX........XXXXXXXXXXXXXXXX    XXX",
"XXX....    XXXXXXXX........XXXXXXXXXXXXXXXX    XXX",
"XXX....    XXXXXXXX........XXXXXXXXXXXXXXXX    XXX",
"XXX....    XXXXXXXX........XXXXXXXXXXXXXXXX    XXX",
"XXXXXXX....    XXXXXXXXXXXXXXXXXXXXXXXXXXXXXXXXXXX",
"XXXXXXX....    XXXXXXXXXXXXXXXXXXXXXXXXXXXXXXXXXXX",
"XXXXXXX....    XXXXXXXXXXXXXXXXXXXXXXXXXXXXXXXXXXX",
"XXXXXXX....    XXXXXXXXXXXXXXXXXXXXXXXXXXXXXXXXXXX",
"XXXXXXXXXXXXXXXXXXXXXXXXXXXXXXXXXXXXXXXXXXXXXXXXXX",
"XXXXXXXXXXXXXXXXXXXXXXXXXXXXXXXXXXXXXXXXXXXXXXXXXX",
"XXXXXXXXXXXXXXXXXXXXXXXXXXXXXXXXXXXXXXXXXXXXXXXXXX",
"XXXXXXXXXXXXXXXXXXXXXXXXXXXXXXXXXXXXXXXXXXXXXXXXXX",
"XXXXXXXXXXX        XXXXXXXXXXXXXXXXXXXXXXXXXXXXXXX",
"XXXXXXXXXXX        XXXXXXXXXXXXXXXXXXXXXXXXXXXXXXX",
"XXXXXXXXXXX        XXXXXXXXXXXXXXXXXXXXXXXXXXXXXXX",
"XXXXXXXXXXX        XXXXXXXXXXXXXXXXXXXXXXXXXXXXXXX",
"XXXXXXXXXXX........        XXXXXXXXXXXXXXXXXXXXXXX",
"XXXXXXXXXXX........        XXXXXXXXXXXXXXXXXXXXXXX",
"XXXXXXXXXXX........        XXXXXXXXXXXXXXXXXXXXXXX",
"XXXXXXXXXXX........        XXXXXXXXXXXXXXXXXXXXXXX",
"XXXXXXXXXXXXXXXXXXX........XXXXXXXXXXXXXXXXXXXXXXX",
"XXXXXXXXXXXXXXXXXXX........XXXXXXXXXXXXXXXXXXXXXXX",
"XXXXXXXXXXXXXXXXXXX........XXXXXXXXXXXXXXXXXXXXXXX",
"XXXXXXXXXXXXXXXXXXX........XXXXXXXXXXXXXXXXXXXXXXX",
"XXXXXXXXXXXXXXXXXXXXXXXXXXXXXXXXXXXXXXXXXXXXXXXXXX",
"XXXXXXXXXXXXXXXXXXXXXXXXXXXXXXXXXXXXXXXXXXXXXXXXXX",
"XXXXXXXXXXXXXXXXXXXXXXXXXXXXXXXXXXXXXXXXXXXXXXXXXX",
"XXXXXXXXXXXXXXXXXXXXXXXXXXXXXXXXXXXXXXXXXXXXXXXXXX",
"XXX....XXXXXXXXXXXXXXXXXXXXXXXXXXXXXXXXXXXX    XXX",
"XXX....XXXXXXXXXXXXXXXXXXXXXXXXXXXXXXXXXXXX    XXX",
"XXX....XXXXXXXXXXXXXXXXXXXXXXXXXXXXXXXXXXXX    XXX",
"XXX....XXXXXXXXXXXXXXXXXXXXXXXXXXXXXXXXXXXX    XXX",
"XXXXXXXXXXXXXXXXXXXXXXXXXXX    XXXXXXXXXXXXXXXXXXX",
"XXXXXXXXXXXXXXXXXXXXXXXXXXX    XXXXXXXXXXXXXXXXXXX",
"XXXXXXXXXXXXXXXXXXXXXXXXXXX    XXXXXXXXXXXXXXXXXXX",
"XXXXXXXXXXXXXXXXXXXXXXXXXXX    XXXXXXXXXXXXXXXXXXX",
"XXXXXXXXXXXXXXXXXXXXXXXXXXX....    XXXXXXXXXXXXXXX",
"XXXXXXXXXXXXXXXXXXXXXXXXXXX....    XXXXXXXXXXXXXXX",
"XXXXXXXXXXXXXXXXXXXXXXXXXXX....    XXXXXXXXXXXXXXX",
"XXXXXXXXXXXXXXXXXXXXXXXXXXX....    XXXXXXXXXXXXXXX",
"XXXXXXXXXXXXXXXXXXXXXXXXXXXXXXX....    XXXXXXXXXXX",
"XXXXXXXXXXXXXXXXXXXXXXXXXXXXXXX....    XXXXXXXXXXX",
"XXXXXXXXXXXXXXXXXXXXXXXXXXXXXXX....    XXXXXXXXXXX",
"XXXXXXXXXXXXXXXXXXXXXXXXXXXXXXX....    XXXXXXXXXXX",
"XXXXXXXXXXX    XXXXXXXXXXXXXXXXXXXXXXXXXXXXXXXXXXX",
"XXXXXXXXXXX    XXXXXXXXXXXXXXXXXXXXXXXXXXXXXXXXXXX",
"XXXXXXXXXXX    XXXXXXXXXXXXXXXXXXXXXXXXXXXXXXXXXXX"
};
