/* XPM */
static char *result[] = {
/* columns rows colors chars-per-pixel */
"50 50 12 1 ",
"  c #3F211E",
". c #352D2C",
"X c #684B30",
"o c #715434",
"O c #7D603D",
"+ c #695F4E",
"@ c #8A6543",
"# c #867D6F",
"$ c #A6825C",
"% c #AB8F66",
"& c #B49B76",
"* c #968E85",
/* pixels */
"OXXXXOOOOOOOOOOOOXXXXXXXXOOOOOOOOOOOOOOOOOOOOOOOOO",
"OooooXXXXOOOOOOOOooooooooOOOOOOOOOOOOOOOOXXXXOOOOO",
"OooooXXXXOOOOOOOOooooooooOOOOOOOOOOOOOOOOXXXXOOOOO",
"OooooXXXXOOOOO++++++++++++++++++++++OOOOOXXXXOOOOO",
"OooooXXXXOO...++++++++++++++++++++++++.OOXXXXOOOOO",
"OOOOOooooX++++************************  OOOOOOOOOO",
"OOOOOooo..++++************************    OOOOOOOO",
"OOOOOoo...++++************************    .OOOOOOO",
"OOOOOo....++++************************    ..OOOOOO",
"OOOOOO++++****%%%%&&&&%%%%%%%%$$$$%%%%****  OOOOOO",
"OOOOO.++++****%%%%&&&&%%%%%%%%$$$$%%%%****   OOOOO",
"OOOO..++++****%%%%&&&&%%%%%%%%$$$$%%%%****    OOOO",
"OOOO..++++****%%%%&&&&%%%%%%%%$$$$%%%%****    OOOO",
"OOOO++****%%%%@@@@%%%%&&&&%%%%%%%%&&&&%%%%****OOOO",
"OOO+++****%%%%@@@@%%%%&&&&%%%%%%%%&&&&%%%%**** OOO",
"OOO+++****%%%%@@@@%%%%&&&&%%%%%%%%&&&&%%%%**** OOO",
"OOO+++****%%%%@@@@%%%%&&&&%%%%%%%%&&&&%%%%**** OOO",
"OOO+++****&&&&%%%%%%%%%%%%$$$$%%%%%%%%&&&&**** OOO",
"OOO+++****&&&&%%%%%%%%%%%%$$$$%%%%%%%%&&&&**** OOO",
"OOO+++****&&&&%%%%%%%%%%%%$$$$%%%%%%%%&&&&**** OOO",
"OOO+++****&&&&%%%%%%%%%%%%$$$$%%%%%%%%&&&&**** OOO",
"OOO...++++****%%%%@@@@&&&&%%%%&&&&@@@@****    .OOO",
"OOO...++++****%%%%@@@@&&&&%%%%&&&&@@@@****    .OOO",
"OOO...++++****%%%%@@@@&&&&%%%%&&&&@@@@****    .OOO",
"OOO...++++****%%%%@@@@&&&&%%%%&&&&@@@@****    .OOO",
"OOO+++####++++************************++++++++ OOO",
"OOO+++####++++************************++++++++ OOO",
"OOO+++####++++************************++++++++ OOO",
"OOO+++####++++************************++++++++ OOO",
"Ooo+++********############################++++ OOO",
"Ooo+++********############################++++ OOO",
"Ooo+++********############################++++ OOO",
"Ooo+++********############################++++ OOO",
"OOO+++****************************########++++ OOO",
"OOO+++****************************########++++ OOO",
"OOO+++****************************########++++ OOO",
"OOOO++****************************########++++OOOO",
"OOOO++####****************************####++++OOOO",
"OOOO++####****************************####++++OOOO",
"OOOOO+####****************************####+++OOOOO",
"OOOOOO####****************************####++OOOOOO",
"OOOOOO    ++++####****************####++++  OOOOOO",
"OOOOOOO   ++++####****************####++++ OOOOOOO",
"OOOOOOOO  ++++####****************####++++OOOOOOOO",
"OOOOOOOOOO++++####****************####++OOOOOOOOOO",
"OOOOOOOOOXX       ++++########++++     OOOOOOOOOOO",
"OOOOOOOOOXXXXO    ++++########++++  OOOOOOOOOOOOOO",
"OOOOOOOOOXXXXOOOOOOOOOOOOOOOOOOOOOOOOOOOOOOOOOOOOO",
"OOOOOOOOOXXXXOOOOOOOOOOOOOOOOOOOOOOOOOOOOOOOOOOOOO",
"OOOOOOOOOOOOOOOOOOOOOOOOOOOOOOOOOOOOOOOOOOOOOOOOOO"
};