/* XPM */
static char *result[] = {
/* columns rows colors chars-per-pixel */
"50 50 12 1 ",
"  c #211F30",
". c #684B30",
"X c #715434",
"o c #7D603D",
"O c #62677A",
"+ c #CE8B16",
"@ c #E1CA33",
"# c #858D99",
"$ c #F7EC8A",
"% c #AFBBC3",
"& c #D8E1E4",
"* c white",
/* pixels */
"ooo....oooooooooooo........ooooooooooooooooooooooo",
"ooo....oooooooooooo........ooooooooooooooooooooooo",
"ooo....oooooooooooo........ooooooooooooooooooooooo",
"oooXXXX....ooooooooXXXXXXXXoooooooooooooooo....ooo",
"oooXXXX....ooooooooXXXXXXXXoooooooooooooooo....ooo",
"oooXXXX....ooooooooXXXXXXXXoooooooooooooooo....ooo",
"oooXXXX....ooooooooXXXXXXXXoooooooooooooooo....ooo",
"oooooooXXXX....ooooooooooooooooooooooooooooooooooo",
"oooooooXXXX....ooooooooooooooooooooooooooooooooooo",
"oooooooXXXX....ooooooooooooooooooooooooooooooooooo",
"oooooooXXXX....ooooooooooooooooooooooooooooooooooo",
"oooooooooooooooooooooooooooooooooooooooooooooooooo",
"oooooooooooooooooooooooooooooooooooooooooooooooooo",
"ooooooooooooooooooo            ooooooooooooooooooo",
"ooooooooooooooooo  **$$$$$*****  ooooooooooooooooo",
"ooooooooooo..... @*$$$$$$$$$$$$*@ oooooooooooooooo",
"ooooooooooo.... @$$$$$$$$$$$$$$$$@ ooooooooooooooo",
"oooooooooOOOO.. @$++++++$$++++++$@ ooOOOOooooooooo",
"ooooooooO***&O @$$@++++@$$@++++@$$@ O&***Ooooooooo",
"oooooooO*****& @$$$$$$$$$$$$$$$$$$@ &*****Oooooooo",
"oooooooO**&**& @$$$++++++++++++$$$@ &**&**Oooooooo",
"oooooooO***%*& @$$@$$$$$$$$$$$$@$$@ &*%***Oooooooo",
"oooooooO****%& @$$$            $$$@ &%****Oooooooo",
"oooooooO*****# @@                @@ #*****Oooooooo",
"ooooooooO&***& @    @@@@@@@@@@    @ &***&Ooooooooo",
"oooooooooO&**&    @@$$$$$$$$$$@@    &**&Oooooooooo",
"ooooooooooO&&&   @$            $@   &&&Ooooooooooo",
"oooooooooooO&&  @                @  &&Oooooooooooo",
"ooooooooooooOO @    @@@@@@@@@@    @ OOoooooooooooo",
"oooooooooooooo    @@$$@++++@$$@@    oooooooooooooo",
"oooooooooooooo   @$$$@+&&&&+@$$$@   oooooooooooooo",
"oooXXXXooooooo  @$$$@ &&***&+@$$$@  ooooooo....ooo",
"oooXXXXoooooooo @@$$@ &****& @$$@@ oooooooo....ooo",
"oooXXXXooooooooo @@$@ &****& @$@@ ooooooooo....ooo",
"oooXXXXoooooooooo  @@@ &*** @@@  oooooooooo....ooo",
"ooooooooooooooooooo    &***    ooooooooooooooooooo",
"ooooooooooooooooooooooo &* ....ooooooooooooooooooo",
"oooooooooooooooooooooooo  o....ooooooooooooooooooo",
"ooooooooooooooooooooooooooo....ooooooooooooooooooo",
"oooooooooooooooooooooooooooXXXX....ooooooooooooooo",
"oooooooooooooooooooooooooooXXXX....ooooooooooooooo",
"oooooooooooooooooooooooooooXXXX....ooooooooooooooo",
"oooooooooooooooooooooooooooXXXX....ooooooooooooooo",
"oooooooooooooooooooooooooooooooXXXX....ooooooooooo",
"oooooooooooooooooooooooooooooooXXXX....ooooooooooo",
"oooooooooooooooooooooooooooooooXXXX....ooooooooooo",
"oooooooooooooooooooooooooooooooXXXX....ooooooooooo",
"ooooooooooo....ooooooooooooooooooooooooooooooooooo",
"ooooooooooo....ooooooooooooooooooooooooooooooooooo",
"ooooooooooo....ooooooooooooooooooooooooooooooooooo"
};