/* XPM */
static char *result[] = {
/* columns rows colors chars-per-pixel */
"50 50 46 1 ",
"  c #524223",
". c #534827",
"X c #554D2A",
"o c #5C4A2B",
"O c #56542E",
"+ c #575730",
"@ c #5F5730",
"# c #575A32",
"$ c #595C33",
"% c #62462C",
"& c #654C2F",
"* c #644E30",
"= c #694B31",
"- c #754C37",
"; c #764E38",
": c #655433",
"> c #6C5334",
", c #625C34",
"< c #695D37",
"1 c #6D5E39",
"2 c #725536",
"3 c #775439",
"4 c #78553A",
"5 c #745D3A",
"6 c #7A5D3C",
"7 c #5E6035",
"8 c #616234",
"9 c #686736",
"0 c #646539",
"q c #6A6339",
"w c #67683A",
"e c #6C6C3D",
"r c #71623B",
"t c #7D603D",
"y c #716D3E",
"u c #71703F",
"i c #746F40",
"p c #737241",
"a c #787745",
"s c #7A7946",
"d c #7E7C49",
"f c #807F4C",
"g c #82814D",
"h c #878651",
"j c #888752",
"k c #8B8A54",
/* pixels */
"tttttt$<if;ttt6ttf46tt$,ttt$$$$#tttttt:$ttt$$ttttt",
"tt6>:,ee,$=t5:66=:<65,ee,,,eeuie$,,t62ye,rtyi$5t26",
"tt6=:#ue$775<$r5>:,6q7uu777ppppp87$q6>yu#1tpi$q526",
"tttt<$ppppp#ep$0ppu#0pppppppppppppp7##eu#1tipiw#6t",
"ttt<9wppppp0pp0ippp$0ppppppppppppppe0#ep#,<ippew<5",
"tt6#epppppppppppppu$wpppppppppppppppe7eu###ipppp#<",
"t,7pppppppppppppppppupppppppppppppppuppp#9pppppp$<",
"t,$pppppppppppppppppppppppppppppppppppupwepppppp#<",
"t,$ppppppppppppppppppppppppppppppppppppppppppppp#<",
"tr58wpppppphdpppppppppppppppppppppppuppppppppppp#<",
"ttt$9ippppahdpppppppppppppppppppppppappppppppppp,1",
"tttt<#ippppppppskdppppppppppppppppppuppppppppp0#t6",
"i3qirepppppppppaddspppppppppppppgsusppppppppppp7<5",
"6,7ppppppppppppppsdppppppppppppakdpdsppppppppppp#<",
"tt6#eppppppkdppppsdppppppppppppppe7ppppppppppppp#<",
"tt6$wpppppahdppppppppippppppppppue0ppppppppppppp$<",
"tt6$epppuuufspppp98upppppppppppppppppppppppppppp#<",
"t<8iupppsuufsppppuuupppppppppppppppppppppppppppp#1",
"t$$pupppuuusaupppppppppppppppppppppppppppppppppp$<",
"t,8pppppuau8eupppppppppppupppppppppppppppppppppp#<",
"t51weuupuuuyuuppppppppppppppppppppppppppgdppppe05r",
"tt6#euppauauppppppppppppppppppppppppppppkfpppp0$tt",
"26tt1#uuuauupppppppkgppppppppppppppppppppppppp7#tt",
"56tt1,uauuuapppppppgdppppppppppppppppppppppppp0#t6",
"66ttq#uppppppppppppppppppppppppppppppppppppppp0$tt",
"tttt<$pppppppppppppppppppppppppppppppppppppppp0$tt",
"ttttq7ppppppppppppppppppppppppppppppppppppppie,$tt",
"t,$pppppppppppppppppppppppppppppppppppppppppi#$$tt",
"t51wepppppppppuagappppppppppupppppppppppppp09513tt",
"tt6#wppppppppppskdppppppppppppppppppppppppp#,tittt",
"ttr#wppppppppppafppppppppppppppakdppppppppppe$5ttt",
"tt6#epppppppppupfappppppppppppppgdppppppdsppewq5tt",
"tt6#wpppppppppppdaupppppppppppppppppppppkfauuuq$tt",
"t<8eippppppppppi9upppppppppppppppppppppagsuaauuy$1",
"t,$ppppppapppppe8epppppppppppppappppppppsuuuueuu,1",
"t,7pppppphkpppppppppppppppppppjjpppppppu89aue#6ttt",
"t,0ppppppsdpppppppppppppppppppddspauuappeepw91tttt",
"t,$pppppppppppppppppppppppppppppfsuuuuppppp7<ttttt",
"t$7ppppppppppppppppppppppppppppu8euaaauuppppe#$#tt",
"t,7ppppppeeppppppppppppppppppppu9euuuuuappppe00w55",
"t$$apppip7$ppppppppppppppppppppppppppppppppppppp#<",
"t*X$wppi$OX$87pppppppppppe7pppppppppppppppp077qtr6",
"t*X#wpi0#. +++eippppppppe8#euepppieep0iippp877q6tt",
"6;;#wp$+      #7pppppppe#X #$$epi$ ++ +$pppppp0$tt",
"t63X$0Xo======+$0ep0ww,@X. XXX8wp:.X. .X0epppp0#tt",
"tt6 X@ %---;--+$#ep##$        O$p,      #wppppw#tt",
"t22----46;;t4-   O#    o64-     $>------ X$$7p0#tt",
"t6334446t44664>=%*:%%%%&334%%%==:>3-;433%*::<9q<tt",
"ttttttttttttttt6-----;--=4t---66;4t=>ttt;;;;-#5ttt",
"ttttttttttttttt666ttt4t64tt6t6tt66t66ttt666666t6tt"
};
